<svg width="50" height="50" viewBox="0 0 50 50" fill="none" xmlns="http://www.w3.org/2000/svg">
<path d="M14.3013 14.3383C17.0378 11.5923 20.8193 9.89584 25 9.89584C33.3419 9.89584 40.1041 16.6582 40.1041 25C40.1041 33.3419 33.3419 40.1042 25 40.1042C16.6582 40.1042 9.89581 33.3419 9.89581 25C9.89581 24.1371 9.19625 23.4375 8.33331 23.4375C7.47038 23.4375 6.77081 24.1371 6.77081 25C6.77081 35.0677 14.9323 43.2292 25 43.2292C35.0677 43.2292 43.2291 35.0677 43.2291 25C43.2291 14.9323 35.0677 6.77084 25 6.77084C19.9552 6.77084 15.3866 8.82213 12.0878 12.1323C12.0347 12.1855 11.9863 12.2416 11.9426 12.3L9.32265 9.68011C9.03683 9.39429 8.6115 9.29963 8.23146 9.43721C7.85142 9.57482 7.58527 9.91984 7.54869 10.3224L6.8121 18.4246C6.78413 18.7325 6.89433 19.0369 7.11294 19.2555C7.33152 19.4741 7.63594 19.5843 7.94381 19.5563L16.0461 18.8198C16.4486 18.7831 16.7936 18.517 16.9312 18.137C17.0688 17.7569 16.9741 17.3316 16.6883 17.0458L14.1298 14.4872C14.1896 14.4424 14.2469 14.3928 14.3013 14.3383Z" fill="white"/>
<path d="M26.5625 14.5833C26.5625 13.7204 25.8629 13.0208 25 13.0208C24.1371 13.0208 23.4375 13.7204 23.4375 14.5833V25C23.4375 25.5388 23.715 26.0394 24.1719 26.325L30.4219 30.2313C31.1538 30.6885 32.1177 30.4663 32.575 29.7344C33.0323 29.0025 32.81 28.0385 32.0781 27.5813L26.5625 24.134V14.5833Z" fill="white"/>
</svg>
