<svg width="50" height="50" viewBox="0 0 50 50" fill="none" xmlns="http://www.w3.org/2000/svg">
<path d="M4.16669 22.9167H33.3334H4.16669Z" fill="white"/>
<path d="M4.16669 22.9167H33.3334" stroke="white" stroke-width="1.5" stroke-linecap="round" stroke-linejoin="round"/>
<path d="M4.16669 35.4167H27.0834H4.16669Z" fill="white"/>
<path d="M4.16669 35.4167H27.0834" stroke="white" stroke-width="1.5" stroke-linecap="round" stroke-linejoin="round"/>
<path d="M4.16669 10.4167H44.1667H4.16669Z" fill="white"/>
<path d="M4.16669 10.4167H44.1667" stroke="white" stroke-width="1.5" stroke-linecap="round" stroke-linejoin="round"/>
<path d="M41.6667 38.5417C41.6667 40.2675 40.2675 41.6667 38.5417 41.6667C36.8159 41.6667 35.4167 40.2675 35.4167 38.5417C35.4167 36.8158 36.8159 35.4167 38.5417 35.4167C40.2675 35.4167 41.6667 36.8158 41.6667 38.5417Z" fill="white"/>
<path d="M41.6667 38.5417C41.6667 40.2675 40.2675 41.6667 38.5417 41.6667C36.8159 41.6667 35.4167 40.2675 35.4167 38.5417C35.4167 36.8158 36.8159 35.4167 38.5417 35.4167C40.2675 35.4167 41.6667 36.8158 41.6667 38.5417ZM41.6667 38.5417V22.0833C41.6667 21.3929 42.2263 20.8333 42.9167 20.8333H45.8334" fill="white"/>
<path d="M41.6667 38.5417V22.0833C41.6667 21.3929 42.2263 20.8333 42.9167 20.8333H45.8334M41.6667 38.5417C41.6667 40.2675 40.2675 41.6667 38.5417 41.6667C36.8159 41.6667 35.4167 40.2675 35.4167 38.5417C35.4167 36.8158 36.8159 35.4167 38.5417 35.4167C40.2675 35.4167 41.6667 36.8158 41.6667 38.5417Z" stroke="white" stroke-width="1.5" stroke-linecap="round"/>
</svg>
