<svg width="50" height="50" viewBox="0 0 50 50" fill="none" xmlns="http://www.w3.org/2000/svg">
<path d="M25 0C16.7158 0 10 8.39502 10 18.75C10 29.105 16.7158 37.5 25 37.5C33.2842 37.5 40 29.105 40 18.75C40 8.39502 33.2842 0 25 0ZM25 35C18.1075 35 12.5 27.71 12.5 18.75C12.5 9.79004 18.1075 2.5 25 2.5C31.8925 2.5 37.5 9.79004 37.5 18.75C37.5 27.71 31.8925 35 25 35Z" fill="white"/>
<path d="M35.9191 35.3283C35.2483 35.9809 34.5342 36.5675 33.7883 37.0958C36.1699 38.2024 38.2591 39.1225 40.0433 39.9017C46.6641 42.7908 47.4999 43.3625 47.4999 45C47.4999 46.1325 46.3849 47.5 44.9999 47.5H5C3.61504 47.5 2.5 46.1325 2.5 45C2.5 43.3625 3.33584 42.7908 9.95586 39.9017C11.7408 39.1225 13.83 38.2025 16.2108 37.0958C15.465 36.5675 14.7509 35.9808 14.08 35.3283C3.67168 40.0917 0 40.73 0 45C0 47.5 2.23838 50 5 50H45C47.7616 50 50 47.5 50 45C50 40.73 46.3283 40.0917 35.9191 35.3283Z" fill="white"/>
</svg>
