<svg width="30" height="30" viewBox="0 0 30 30" fill="none" xmlns="http://www.w3.org/2000/svg">
<rect width="30" height="30" fill="white"/>
<path d="M29.6219 27.8515L21.0144 19.2379C22.7113 17.2028 23.7319 14.6022 23.7319 11.7617C23.7319 5.28153 18.4138 0.0125427 11.8721 0.0125427C5.33046 0.0125427 0 5.28767 0 11.7678C0 18.248 5.31817 23.517 11.8598 23.517C14.6388 23.517 17.1964 22.564 19.2253 20.9717L27.8635 29.6098C28.3677 30.114 29.1177 30.114 29.6219 29.6098C30.126 29.1057 30.126 28.3556 29.6219 27.8515ZM2.52075 11.7678C2.52075 6.67716 6.7138 2.53944 11.8598 2.53944C17.0058 2.53944 21.1989 6.67716 21.1989 11.7678C21.1989 16.8585 17.0058 20.9963 11.8598 20.9963C6.7138 20.9963 2.52075 16.8524 2.52075 11.7678Z" fill="#040306"/>
</svg>
