<svg width="50" height="50" viewBox="0 0 50 50" fill="none" xmlns="http://www.w3.org/2000/svg">
<path d="M49.3698 46.4187L35.0241 32.0627C37.8522 28.671 39.5532 24.3365 39.5532 19.6024C39.5532 8.80213 30.6896 0.0204926 19.7869 0.0204926C8.88411 0.0204926 0 8.81238 0 19.6127C0 30.413 8.86361 39.1946 19.7664 39.1946C24.398 39.1946 28.6607 37.6063 32.0422 34.9524L46.4392 49.3493C47.2794 50.1896 48.5296 50.1896 49.3698 49.3493C50.2101 48.5091 50.2101 47.2589 49.3698 46.4187ZM4.20125 19.6127C4.20125 11.1282 11.1897 4.23199 19.7664 4.23199C28.3431 4.23199 35.3315 11.1282 35.3315 19.6127C35.3315 28.0971 28.3431 34.9933 19.7664 34.9933C11.1897 34.9933 4.20125 28.0869 4.20125 19.6127Z" fill="white"/>
</svg>
